<?xml version="1.0" encoding="utf-8"?>
<svg xmlns="http://www.w3.org/2000/svg" viewBox="0 0 760 150" width="100%" height="150">
  <defs>
    <!-- Background Space Gradient -->
    <linearGradient id="bg-space" x1="0%" y1="0%" x2="0%" y2="100%">
      <stop offset="0%" stop-color="#0d1117" />
      <stop offset="100%" stop-color="#090c10" />
    </linearGradient>
    
    <!-- Butterfly Gradients -->
    <linearGradient id="grad-pink" x1="0%" y1="0%" x2="100%" y2="100%">
      <stop offset="0%" stop-color="#ffb7d5" />
      <stop offset="100%" stop-color="#ff4d94" />
    </linearGradient>
    <linearGradient id="grad-lavender" x1="0%" y1="0%" x2="100%" y2="100%">
      <stop offset="0%" stop-color="#e8d7ff" />
      <stop offset="100%" stop-color="#dda0dd" />
    </linearGradient>
    <linearGradient id="grad-purple" x1="0%" y1="0%" x2="100%" y2="100%">
      <stop offset="0%" stop-color="#dda0dd" />
      <stop offset="100%" stop-color="#ba55d3" />
    </linearGradient>
  </defs>

  <style>
    .bg { fill: url(#bg-space); }
    .border { stroke: #21262d; stroke-width: 1.5; fill: none; }
    .label {
      fill: #8b949e;
      font-family: -apple-system, BlinkMacSystemFont, "Segoe UI", Helvetica, Arial, sans-serif;
      font-size: 9px;
      font-weight: 500;
    }
    .title {
      fill: #ff69b4;
      font-family: -apple-system, BlinkMacSystemFont, "Segoe UI", Helvetica, Arial, sans-serif;
      font-size: 11px;
      font-weight: 700;
      letter-spacing: 1.2px;
    }
    .grid-cell {
      stroke: #0d1117;
      stroke-width: 0.5;
      opacity: 0.82;
    }
    
    @keyframes flap-left {
      0% { transform: scaleX(1) rotate(-8deg); }
      100% { transform: scaleX(0.15) rotate(4deg); }
    }
    
    @keyframes flap-right {
      0% { transform: scaleX(1) rotate(8deg); }
      100% { transform: scaleX(0.15) rotate(-4deg); }
    }
    
    @keyframes hover-1 {
      0% { transform: translate(0px, 0px) rotate(-6deg); }
      100% { transform: translate(2px, -3px) rotate(6deg); }
    }
    
    @keyframes hover-2 {
      0% { transform: translate(0px, 0px) rotate(4deg); }
      100% { transform: translate(-2px, -4px) rotate(-4deg); }
    }
    
    @keyframes hover-3 {
      0% { transform: translate(0px, 0px) rotate(-4deg); }
      100% { transform: translate(1px, -4px) rotate(6deg); }
    }

    @keyframes firefly-float {
      0%, 100% { transform: translate(0, 0); opacity: 0.25; }
      50% { transform: translate(var(--dx), var(--dy)); opacity: 0.95; }
    }

    @keyframes petal-fall {
      0% { transform: translate(0, -10px) rotate(0deg); opacity: 0; }
      10% { opacity: 0.7; }
      85% { opacity: 0.7; }
      95% { transform: translate(var(--fdx), 45px) rotate(var(--frot)); opacity: 0; }
      100% { transform: translate(var(--fdx), 45px) rotate(var(--frot)); opacity: 0; }
    }
  </style>

  <!-- Card Background -->
  <rect width="760" height="150" rx="12" class="bg" />
  <rect width="758.5" height="148.5" x="0.75" y="0.75" rx="11.25" class="border" />

  <!-- Header Title -->
  <text x="35" y="22" class="title">🦋 BUTTERFLY MIGRATION</text>

  <!-- Day and Month Labels -->
    <text x="35" y="22" class="label">Jun</text>
  <text x="87" y="22" class="label">Jul</text>
  <text x="139" y="22" class="label">Aug</text>
  <text x="204" y="22" class="label">Sep</text>
  <text x="256" y="22" class="label">Oct</text>
  <text x="308" y="22" class="label">Nov</text>
  <text x="373" y="22" class="label">Dec</text>
  <text x="425" y="22" class="label">Jan</text>
  <text x="477" y="22" class="label">Feb</text>
  <text x="529" y="22" class="label">Mar</text>
  <text x="594" y="22" class="label">Apr</text>
  <text x="646" y="22" class="label">May</text>
  <text x="711" y="22" class="label">Jun</text>

  
    <text x="18" y="52" class="label" text-anchor="middle">M</text>
    <text x="18" y="78" class="label" text-anchor="middle">W</text>
    <text x="18" y="104" class="label" text-anchor="middle">F</text>
  

  <!-- Contribution Heatmap Grid Backdrop -->
    <rect x="30" y="30" width="10" height="10" rx="2" fill="#161b22" class="grid-cell" />
  <rect x="30" y="43" width="10" height="10" rx="2" fill="#161b22" class="grid-cell" />
  <rect x="30" y="56" width="10" height="10" rx="2" fill="#161b22" class="grid-cell" />
  <rect x="30" y="69" width="10" height="10" rx="2" fill="#161b22" class="grid-cell" />
  <rect x="30" y="82" width="10" height="10" rx="2" fill="#161b22" class="grid-cell" />
  <rect x="30" y="95" width="10" height="10" rx="2" fill="#161b22" class="grid-cell" />
  <rect x="30" y="108" width="10" height="10" rx="2" fill="#161b22" class="grid-cell" />
  <rect x="43" y="30" width="10" height="10" rx="2" fill="#161b22" class="grid-cell" />
  <rect x="43" y="43" width="10" height="10" rx="2" fill="#161b22" class="grid-cell" />
  <rect x="43" y="56" width="10" height="10" rx="2" fill="#161b22" class="grid-cell" />
  <rect x="43" y="69" width="10" height="10" rx="2" fill="#161b22" class="grid-cell" />
  <rect x="43" y="82" width="10" height="10" rx="2" fill="#161b22" class="grid-cell" />
  <rect x="43" y="95" width="10" height="10" rx="2" fill="#161b22" class="grid-cell" />
  <rect x="43" y="108" width="10" height="10" rx="2" fill="#161b22" class="grid-cell" />
  <rect x="56" y="30" width="10" height="10" rx="2" fill="#161b22" class="grid-cell" />
  <rect x="56" y="43" width="10" height="10" rx="2" fill="#161b22" class="grid-cell" />
  <rect x="56" y="56" width="10" height="10" rx="2" fill="#161b22" class="grid-cell" />
  <rect x="56" y="69" width="10" height="10" rx="2" fill="#161b22" class="grid-cell" />
  <rect x="56" y="82" width="10" height="10" rx="2" fill="#161b22" class="grid-cell" />
  <rect x="56" y="95" width="10" height="10" rx="2" fill="#161b22" class="grid-cell" />
  <rect x="56" y="108" width="10" height="10" rx="2" fill="#161b22" class="grid-cell" />
  <rect x="69" y="30" width="10" height="10" rx="2" fill="#161b22" class="grid-cell" />
  <rect x="69" y="43" width="10" height="10" rx="2" fill="#161b22" class="grid-cell" />
  <rect x="69" y="56" width="10" height="10" rx="2" fill="#161b22" class="grid-cell" />
  <rect x="69" y="69" width="10" height="10" rx="2" fill="#161b22" class="grid-cell" />
  <rect x="69" y="82" width="10" height="10" rx="2" fill="#161b22" class="grid-cell" />
  <rect x="69" y="95" width="10" height="10" rx="2" fill="#161b22" class="grid-cell" />
  <rect x="69" y="108" width="10" height="10" rx="2" fill="#161b22" class="grid-cell" />
  <rect x="82" y="30" width="10" height="10" rx="2" fill="#161b22" class="grid-cell" />
  <rect x="82" y="43" width="10" height="10" rx="2" fill="#161b22" class="grid-cell" />
  <rect x="82" y="56" width="10" height="10" rx="2" fill="#161b22" class="grid-cell" />
  <rect x="82" y="69" width="10" height="10" rx="2" fill="#161b22" class="grid-cell" />
  <rect x="82" y="82" width="10" height="10" rx="2" fill="#161b22" class="grid-cell" />
  <rect x="82" y="95" width="10" height="10" rx="2" fill="#161b22" class="grid-cell" />
  <rect x="82" y="108" width="10" height="10" rx="2" fill="#161b22" class="grid-cell" />
  <rect x="95" y="30" width="10" height="10" rx="2" fill="#161b22" class="grid-cell" />
  <rect x="95" y="43" width="10" height="10" rx="2" fill="#161b22" class="grid-cell" />
  <rect x="95" y="56" width="10" height="10" rx="2" fill="#161b22" class="grid-cell" />
  <rect x="95" y="69" width="10" height="10" rx="2" fill="#161b22" class="grid-cell" />
  <rect x="95" y="82" width="10" height="10" rx="2" fill="#161b22" class="grid-cell" />
  <rect x="95" y="95" width="10" height="10" rx="2" fill="#161b22" class="grid-cell" />
  <rect x="95" y="108" width="10" height="10" rx="2" fill="#161b22" class="grid-cell" />
  <rect x="108" y="30" width="10" height="10" rx="2" fill="#161b22" class="grid-cell" />
  <rect x="108" y="43" width="10" height="10" rx="2" fill="#161b22" class="grid-cell" />
  <rect x="108" y="56" width="10" height="10" rx="2" fill="#161b22" class="grid-cell" />
  <rect x="108" y="69" width="10" height="10" rx="2" fill="#161b22" class="grid-cell" />
  <rect x="108" y="82" width="10" height="10" rx="2" fill="#161b22" class="grid-cell" />
  <rect x="108" y="95" width="10" height="10" rx="2" fill="#161b22" class="grid-cell" />
  <rect x="108" y="108" width="10" height="10" rx="2" fill="#161b22" class="grid-cell" />
  <rect x="121" y="30" width="10" height="10" rx="2" fill="#161b22" class="grid-cell" />
  <rect x="121" y="43" width="10" height="10" rx="2" fill="#161b22" class="grid-cell" />
  <rect x="121" y="56" width="10" height="10" rx="2" fill="#161b22" class="grid-cell" />
  <rect x="121" y="69" width="10" height="10" rx="2" fill="#26a641" class="grid-cell" />
  <rect x="121" y="82" width="10" height="10" rx="2" fill="#161b22" class="grid-cell" />
  <rect x="121" y="95" width="10" height="10" rx="2" fill="#161b22" class="grid-cell" />
  <rect x="121" y="108" width="10" height="10" rx="2" fill="#161b22" class="grid-cell" />
  <rect x="134" y="30" width="10" height="10" rx="2" fill="#161b22" class="grid-cell" />
  <rect x="134" y="43" width="10" height="10" rx="2" fill="#161b22" class="grid-cell" />
  <rect x="134" y="56" width="10" height="10" rx="2" fill="#161b22" class="grid-cell" />
  <rect x="134" y="69" width="10" height="10" rx="2" fill="#161b22" class="grid-cell" />
  <rect x="134" y="82" width="10" height="10" rx="2" fill="#161b22" class="grid-cell" />
  <rect x="134" y="95" width="10" height="10" rx="2" fill="#161b22" class="grid-cell" />
  <rect x="134" y="108" width="10" height="10" rx="2" fill="#161b22" class="grid-cell" />
  <rect x="147" y="30" width="10" height="10" rx="2" fill="#161b22" class="grid-cell" />
  <rect x="147" y="43" width="10" height="10" rx="2" fill="#161b22" class="grid-cell" />
  <rect x="147" y="56" width="10" height="10" rx="2" fill="#161b22" class="grid-cell" />
  <rect x="147" y="69" width="10" height="10" rx="2" fill="#161b22" class="grid-cell" />
  <rect x="147" y="82" width="10" height="10" rx="2" fill="#161b22" class="grid-cell" />
  <rect x="147" y="95" width="10" height="10" rx="2" fill="#161b22" class="grid-cell" />
  <rect x="147" y="108" width="10" height="10" rx="2" fill="#161b22" class="grid-cell" />
  <rect x="160" y="30" width="10" height="10" rx="2" fill="#161b22" class="grid-cell" />
  <rect x="160" y="43" width="10" height="10" rx="2" fill="#161b22" class="grid-cell" />
  <rect x="160" y="56" width="10" height="10" rx="2" fill="#161b22" class="grid-cell" />
  <rect x="160" y="69" width="10" height="10" rx="2" fill="#161b22" class="grid-cell" />
  <rect x="160" y="82" width="10" height="10" rx="2" fill="#161b22" class="grid-cell" />
  <rect x="160" y="95" width="10" height="10" rx="2" fill="#161b22" class="grid-cell" />
  <rect x="160" y="108" width="10" height="10" rx="2" fill="#161b22" class="grid-cell" />
  <rect x="173" y="30" width="10" height="10" rx="2" fill="#161b22" class="grid-cell" />
  <rect x="173" y="43" width="10" height="10" rx="2" fill="#161b22" class="grid-cell" />
  <rect x="173" y="56" width="10" height="10" rx="2" fill="#161b22" class="grid-cell" />
  <rect x="173" y="69" width="10" height="10" rx="2" fill="#161b22" class="grid-cell" />
  <rect x="173" y="82" width="10" height="10" rx="2" fill="#161b22" class="grid-cell" />
  <rect x="173" y="95" width="10" height="10" rx="2" fill="#161b22" class="grid-cell" />
  <rect x="173" y="108" width="10" height="10" rx="2" fill="#161b22" class="grid-cell" />
  <rect x="186" y="30" width="10" height="10" rx="2" fill="#161b22" class="grid-cell" />
  <rect x="186" y="43" width="10" height="10" rx="2" fill="#161b22" class="grid-cell" />
  <rect x="186" y="56" width="10" height="10" rx="2" fill="#161b22" class="grid-cell" />
  <rect x="186" y="69" width="10" height="10" rx="2" fill="#161b22" class="grid-cell" />
  <rect x="186" y="82" width="10" height="10" rx="2" fill="#161b22" class="grid-cell" />
  <rect x="186" y="95" width="10" height="10" rx="2" fill="#161b22" class="grid-cell" />
  <rect x="186" y="108" width="10" height="10" rx="2" fill="#161b22" class="grid-cell" />
  <rect x="199" y="30" width="10" height="10" rx="2" fill="#161b22" class="grid-cell" />
  <rect x="199" y="43" width="10" height="10" rx="2" fill="#161b22" class="grid-cell" />
  <rect x="199" y="56" width="10" height="10" rx="2" fill="#161b22" class="grid-cell" />
  <rect x="199" y="69" width="10" height="10" rx="2" fill="#161b22" class="grid-cell" />
  <rect x="199" y="82" width="10" height="10" rx="2" fill="#161b22" class="grid-cell" />
  <rect x="199" y="95" width="10" height="10" rx="2" fill="#161b22" class="grid-cell" />
  <rect x="199" y="108" width="10" height="10" rx="2" fill="#161b22" class="grid-cell" />
  <rect x="212" y="30" width="10" height="10" rx="2" fill="#161b22" class="grid-cell" />
  <rect x="212" y="43" width="10" height="10" rx="2" fill="#161b22" class="grid-cell" />
  <rect x="212" y="56" width="10" height="10" rx="2" fill="#161b22" class="grid-cell" />
  <rect x="212" y="69" width="10" height="10" rx="2" fill="#161b22" class="grid-cell" />
  <rect x="212" y="82" width="10" height="10" rx="2" fill="#161b22" class="grid-cell" />
  <rect x="212" y="95" width="10" height="10" rx="2" fill="#161b22" class="grid-cell" />
  <rect x="212" y="108" width="10" height="10" rx="2" fill="#161b22" class="grid-cell" />
  <rect x="225" y="30" width="10" height="10" rx="2" fill="#161b22" class="grid-cell" />
  <rect x="225" y="43" width="10" height="10" rx="2" fill="#161b22" class="grid-cell" />
  <rect x="225" y="56" width="10" height="10" rx="2" fill="#161b22" class="grid-cell" />
  <rect x="225" y="69" width="10" height="10" rx="2" fill="#161b22" class="grid-cell" />
  <rect x="225" y="82" width="10" height="10" rx="2" fill="#161b22" class="grid-cell" />
  <rect x="225" y="95" width="10" height="10" rx="2" fill="#161b22" class="grid-cell" />
  <rect x="225" y="108" width="10" height="10" rx="2" fill="#161b22" class="grid-cell" />
  <rect x="238" y="30" width="10" height="10" rx="2" fill="#161b22" class="grid-cell" />
  <rect x="238" y="43" width="10" height="10" rx="2" fill="#161b22" class="grid-cell" />
  <rect x="238" y="56" width="10" height="10" rx="2" fill="#26a641" class="grid-cell" />
  <rect x="238" y="69" width="10" height="10" rx="2" fill="#0e4429" class="grid-cell" />
  <rect x="238" y="82" width="10" height="10" rx="2" fill="#161b22" class="grid-cell" />
  <rect x="238" y="95" width="10" height="10" rx="2" fill="#161b22" class="grid-cell" />
  <rect x="238" y="108" width="10" height="10" rx="2" fill="#161b22" class="grid-cell" />
  <rect x="251" y="30" width="10" height="10" rx="2" fill="#161b22" class="grid-cell" />
  <rect x="251" y="43" width="10" height="10" rx="2" fill="#161b22" class="grid-cell" />
  <rect x="251" y="56" width="10" height="10" rx="2" fill="#006d32" class="grid-cell" />
  <rect x="251" y="69" width="10" height="10" rx="2" fill="#161b22" class="grid-cell" />
  <rect x="251" y="82" width="10" height="10" rx="2" fill="#161b22" class="grid-cell" />
  <rect x="251" y="95" width="10" height="10" rx="2" fill="#161b22" class="grid-cell" />
  <rect x="251" y="108" width="10" height="10" rx="2" fill="#161b22" class="grid-cell" />
  <rect x="264" y="30" width="10" height="10" rx="2" fill="#161b22" class="grid-cell" />
  <rect x="264" y="43" width="10" height="10" rx="2" fill="#161b22" class="grid-cell" />
  <rect x="264" y="56" width="10" height="10" rx="2" fill="#161b22" class="grid-cell" />
  <rect x="264" y="69" width="10" height="10" rx="2" fill="#161b22" class="grid-cell" />
  <rect x="264" y="82" width="10" height="10" rx="2" fill="#161b22" class="grid-cell" />
  <rect x="264" y="95" width="10" height="10" rx="2" fill="#161b22" class="grid-cell" />
  <rect x="264" y="108" width="10" height="10" rx="2" fill="#161b22" class="grid-cell" />
  <rect x="277" y="30" width="10" height="10" rx="2" fill="#161b22" class="grid-cell" />
  <rect x="277" y="43" width="10" height="10" rx="2" fill="#161b22" class="grid-cell" />
  <rect x="277" y="56" width="10" height="10" rx="2" fill="#161b22" class="grid-cell" />
  <rect x="277" y="69" width="10" height="10" rx="2" fill="#161b22" class="grid-cell" />
  <rect x="277" y="82" width="10" height="10" rx="2" fill="#161b22" class="grid-cell" />
  <rect x="277" y="95" width="10" height="10" rx="2" fill="#161b22" class="grid-cell" />
  <rect x="277" y="108" width="10" height="10" rx="2" fill="#161b22" class="grid-cell" />
  <rect x="290" y="30" width="10" height="10" rx="2" fill="#161b22" class="grid-cell" />
  <rect x="290" y="43" width="10" height="10" rx="2" fill="#161b22" class="grid-cell" />
  <rect x="290" y="56" width="10" height="10" rx="2" fill="#161b22" class="grid-cell" />
  <rect x="290" y="69" width="10" height="10" rx="2" fill="#161b22" class="grid-cell" />
  <rect x="290" y="82" width="10" height="10" rx="2" fill="#161b22" class="grid-cell" />
  <rect x="290" y="95" width="10" height="10" rx="2" fill="#161b22" class="grid-cell" />
  <rect x="290" y="108" width="10" height="10" rx="2" fill="#161b22" class="grid-cell" />
  <rect x="303" y="30" width="10" height="10" rx="2" fill="#161b22" class="grid-cell" />
  <rect x="303" y="43" width="10" height="10" rx="2" fill="#161b22" class="grid-cell" />
  <rect x="303" y="56" width="10" height="10" rx="2" fill="#161b22" class="grid-cell" />
  <rect x="303" y="69" width="10" height="10" rx="2" fill="#161b22" class="grid-cell" />
  <rect x="303" y="82" width="10" height="10" rx="2" fill="#161b22" class="grid-cell" />
  <rect x="303" y="95" width="10" height="10" rx="2" fill="#161b22" class="grid-cell" />
  <rect x="303" y="108" width="10" height="10" rx="2" fill="#161b22" class="grid-cell" />
  <rect x="316" y="30" width="10" height="10" rx="2" fill="#161b22" class="grid-cell" />
  <rect x="316" y="43" width="10" height="10" rx="2" fill="#161b22" class="grid-cell" />
  <rect x="316" y="56" width="10" height="10" rx="2" fill="#161b22" class="grid-cell" />
  <rect x="316" y="69" width="10" height="10" rx="2" fill="#161b22" class="grid-cell" />
  <rect x="316" y="82" width="10" height="10" rx="2" fill="#161b22" class="grid-cell" />
  <rect x="316" y="95" width="10" height="10" rx="2" fill="#161b22" class="grid-cell" />
  <rect x="316" y="108" width="10" height="10" rx="2" fill="#161b22" class="grid-cell" />
  <rect x="329" y="30" width="10" height="10" rx="2" fill="#161b22" class="grid-cell" />
  <rect x="329" y="43" width="10" height="10" rx="2" fill="#161b22" class="grid-cell" />
  <rect x="329" y="56" width="10" height="10" rx="2" fill="#161b22" class="grid-cell" />
  <rect x="329" y="69" width="10" height="10" rx="2" fill="#161b22" class="grid-cell" />
  <rect x="329" y="82" width="10" height="10" rx="2" fill="#161b22" class="grid-cell" />
  <rect x="329" y="95" width="10" height="10" rx="2" fill="#161b22" class="grid-cell" />
  <rect x="329" y="108" width="10" height="10" rx="2" fill="#161b22" class="grid-cell" />
  <rect x="342" y="30" width="10" height="10" rx="2" fill="#161b22" class="grid-cell" />
  <rect x="342" y="43" width="10" height="10" rx="2" fill="#161b22" class="grid-cell" />
  <rect x="342" y="56" width="10" height="10" rx="2" fill="#161b22" class="grid-cell" />
  <rect x="342" y="69" width="10" height="10" rx="2" fill="#161b22" class="grid-cell" />
  <rect x="342" y="82" width="10" height="10" rx="2" fill="#161b22" class="grid-cell" />
  <rect x="342" y="95" width="10" height="10" rx="2" fill="#161b22" class="grid-cell" />
  <rect x="342" y="108" width="10" height="10" rx="2" fill="#161b22" class="grid-cell" />
  <rect x="355" y="30" width="10" height="10" rx="2" fill="#161b22" class="grid-cell" />
  <rect x="355" y="43" width="10" height="10" rx="2" fill="#161b22" class="grid-cell" />
  <rect x="355" y="56" width="10" height="10" rx="2" fill="#161b22" class="grid-cell" />
  <rect x="355" y="69" width="10" height="10" rx="2" fill="#161b22" class="grid-cell" />
  <rect x="355" y="82" width="10" height="10" rx="2" fill="#161b22" class="grid-cell" />
  <rect x="355" y="95" width="10" height="10" rx="2" fill="#161b22" class="grid-cell" />
  <rect x="355" y="108" width="10" height="10" rx="2" fill="#161b22" class="grid-cell" />
  <rect x="368" y="30" width="10" height="10" rx="2" fill="#161b22" class="grid-cell" />
  <rect x="368" y="43" width="10" height="10" rx="2" fill="#161b22" class="grid-cell" />
  <rect x="368" y="56" width="10" height="10" rx="2" fill="#161b22" class="grid-cell" />
  <rect x="368" y="69" width="10" height="10" rx="2" fill="#161b22" class="grid-cell" />
  <rect x="368" y="82" width="10" height="10" rx="2" fill="#161b22" class="grid-cell" />
  <rect x="368" y="95" width="10" height="10" rx="2" fill="#161b22" class="grid-cell" />
  <rect x="368" y="108" width="10" height="10" rx="2" fill="#161b22" class="grid-cell" />
  <rect x="381" y="30" width="10" height="10" rx="2" fill="#161b22" class="grid-cell" />
  <rect x="381" y="43" width="10" height="10" rx="2" fill="#161b22" class="grid-cell" />
  <rect x="381" y="56" width="10" height="10" rx="2" fill="#161b22" class="grid-cell" />
  <rect x="381" y="69" width="10" height="10" rx="2" fill="#161b22" class="grid-cell" />
  <rect x="381" y="82" width="10" height="10" rx="2" fill="#161b22" class="grid-cell" />
  <rect x="381" y="95" width="10" height="10" rx="2" fill="#161b22" class="grid-cell" />
  <rect x="381" y="108" width="10" height="10" rx="2" fill="#161b22" class="grid-cell" />
  <rect x="394" y="30" width="10" height="10" rx="2" fill="#161b22" class="grid-cell" />
  <rect x="394" y="43" width="10" height="10" rx="2" fill="#161b22" class="grid-cell" />
  <rect x="394" y="56" width="10" height="10" rx="2" fill="#161b22" class="grid-cell" />
  <rect x="394" y="69" width="10" height="10" rx="2" fill="#161b22" class="grid-cell" />
  <rect x="394" y="82" width="10" height="10" rx="2" fill="#161b22" class="grid-cell" />
  <rect x="394" y="95" width="10" height="10" rx="2" fill="#161b22" class="grid-cell" />
  <rect x="394" y="108" width="10" height="10" rx="2" fill="#161b22" class="grid-cell" />
  <rect x="407" y="30" width="10" height="10" rx="2" fill="#161b22" class="grid-cell" />
  <rect x="407" y="43" width="10" height="10" rx="2" fill="#161b22" class="grid-cell" />
  <rect x="407" y="56" width="10" height="10" rx="2" fill="#161b22" class="grid-cell" />
  <rect x="407" y="69" width="10" height="10" rx="2" fill="#161b22" class="grid-cell" />
  <rect x="407" y="82" width="10" height="10" rx="2" fill="#161b22" class="grid-cell" />
  <rect x="407" y="95" width="10" height="10" rx="2" fill="#161b22" class="grid-cell" />
  <rect x="407" y="108" width="10" height="10" rx="2" fill="#161b22" class="grid-cell" />
  <rect x="420" y="30" width="10" height="10" rx="2" fill="#161b22" class="grid-cell" />
  <rect x="420" y="43" width="10" height="10" rx="2" fill="#161b22" class="grid-cell" />
  <rect x="420" y="56" width="10" height="10" rx="2" fill="#161b22" class="grid-cell" />
  <rect x="420" y="69" width="10" height="10" rx="2" fill="#161b22" class="grid-cell" />
  <rect x="420" y="82" width="10" height="10" rx="2" fill="#161b22" class="grid-cell" />
  <rect x="420" y="95" width="10" height="10" rx="2" fill="#161b22" class="grid-cell" />
  <rect x="420" y="108" width="10" height="10" rx="2" fill="#161b22" class="grid-cell" />
  <rect x="433" y="30" width="10" height="10" rx="2" fill="#161b22" class="grid-cell" />
  <rect x="433" y="43" width="10" height="10" rx="2" fill="#161b22" class="grid-cell" />
  <rect x="433" y="56" width="10" height="10" rx="2" fill="#161b22" class="grid-cell" />
  <rect x="433" y="69" width="10" height="10" rx="2" fill="#161b22" class="grid-cell" />
  <rect x="433" y="82" width="10" height="10" rx="2" fill="#161b22" class="grid-cell" />
  <rect x="433" y="95" width="10" height="10" rx="2" fill="#161b22" class="grid-cell" />
  <rect x="433" y="108" width="10" height="10" rx="2" fill="#161b22" class="grid-cell" />
  <rect x="446" y="30" width="10" height="10" rx="2" fill="#161b22" class="grid-cell" />
  <rect x="446" y="43" width="10" height="10" rx="2" fill="#161b22" class="grid-cell" />
  <rect x="446" y="56" width="10" height="10" rx="2" fill="#0e4429" class="grid-cell" />
  <rect x="446" y="69" width="10" height="10" rx="2" fill="#161b22" class="grid-cell" />
  <rect x="446" y="82" width="10" height="10" rx="2" fill="#161b22" class="grid-cell" />
  <rect x="446" y="95" width="10" height="10" rx="2" fill="#161b22" class="grid-cell" />
  <rect x="446" y="108" width="10" height="10" rx="2" fill="#161b22" class="grid-cell" />
  <rect x="459" y="30" width="10" height="10" rx="2" fill="#161b22" class="grid-cell" />
  <rect x="459" y="43" width="10" height="10" rx="2" fill="#161b22" class="grid-cell" />
  <rect x="459" y="56" width="10" height="10" rx="2" fill="#161b22" class="grid-cell" />
  <rect x="459" y="69" width="10" height="10" rx="2" fill="#161b22" class="grid-cell" />
  <rect x="459" y="82" width="10" height="10" rx="2" fill="#161b22" class="grid-cell" />
  <rect x="459" y="95" width="10" height="10" rx="2" fill="#161b22" class="grid-cell" />
  <rect x="459" y="108" width="10" height="10" rx="2" fill="#161b22" class="grid-cell" />
  <rect x="472" y="30" width="10" height="10" rx="2" fill="#161b22" class="grid-cell" />
  <rect x="472" y="43" width="10" height="10" rx="2" fill="#161b22" class="grid-cell" />
  <rect x="472" y="56" width="10" height="10" rx="2" fill="#161b22" class="grid-cell" />
  <rect x="472" y="69" width="10" height="10" rx="2" fill="#161b22" class="grid-cell" />
  <rect x="472" y="82" width="10" height="10" rx="2" fill="#161b22" class="grid-cell" />
  <rect x="472" y="95" width="10" height="10" rx="2" fill="#161b22" class="grid-cell" />
  <rect x="472" y="108" width="10" height="10" rx="2" fill="#161b22" class="grid-cell" />
  <rect x="485" y="30" width="10" height="10" rx="2" fill="#161b22" class="grid-cell" />
  <rect x="485" y="43" width="10" height="10" rx="2" fill="#161b22" class="grid-cell" />
  <rect x="485" y="56" width="10" height="10" rx="2" fill="#161b22" class="grid-cell" />
  <rect x="485" y="69" width="10" height="10" rx="2" fill="#161b22" class="grid-cell" />
  <rect x="485" y="82" width="10" height="10" rx="2" fill="#161b22" class="grid-cell" />
  <rect x="485" y="95" width="10" height="10" rx="2" fill="#161b22" class="grid-cell" />
  <rect x="485" y="108" width="10" height="10" rx="2" fill="#161b22" class="grid-cell" />
  <rect x="498" y="30" width="10" height="10" rx="2" fill="#161b22" class="grid-cell" />
  <rect x="498" y="43" width="10" height="10" rx="2" fill="#161b22" class="grid-cell" />
  <rect x="498" y="56" width="10" height="10" rx="2" fill="#161b22" class="grid-cell" />
  <rect x="498" y="69" width="10" height="10" rx="2" fill="#161b22" class="grid-cell" />
  <rect x="498" y="82" width="10" height="10" rx="2" fill="#161b22" class="grid-cell" />
  <rect x="498" y="95" width="10" height="10" rx="2" fill="#161b22" class="grid-cell" />
  <rect x="498" y="108" width="10" height="10" rx="2" fill="#161b22" class="grid-cell" />
  <rect x="511" y="30" width="10" height="10" rx="2" fill="#161b22" class="grid-cell" />
  <rect x="511" y="43" width="10" height="10" rx="2" fill="#161b22" class="grid-cell" />
  <rect x="511" y="56" width="10" height="10" rx="2" fill="#161b22" class="grid-cell" />
  <rect x="511" y="69" width="10" height="10" rx="2" fill="#161b22" class="grid-cell" />
  <rect x="511" y="82" width="10" height="10" rx="2" fill="#161b22" class="grid-cell" />
  <rect x="511" y="95" width="10" height="10" rx="2" fill="#161b22" class="grid-cell" />
  <rect x="511" y="108" width="10" height="10" rx="2" fill="#161b22" class="grid-cell" />
  <rect x="524" y="30" width="10" height="10" rx="2" fill="#161b22" class="grid-cell" />
  <rect x="524" y="43" width="10" height="10" rx="2" fill="#161b22" class="grid-cell" />
  <rect x="524" y="56" width="10" height="10" rx="2" fill="#161b22" class="grid-cell" />
  <rect x="524" y="69" width="10" height="10" rx="2" fill="#161b22" class="grid-cell" />
  <rect x="524" y="82" width="10" height="10" rx="2" fill="#161b22" class="grid-cell" />
  <rect x="524" y="95" width="10" height="10" rx="2" fill="#161b22" class="grid-cell" />
  <rect x="524" y="108" width="10" height="10" rx="2" fill="#161b22" class="grid-cell" />
  <rect x="537" y="30" width="10" height="10" rx="2" fill="#161b22" class="grid-cell" />
  <rect x="537" y="43" width="10" height="10" rx="2" fill="#161b22" class="grid-cell" />
  <rect x="537" y="56" width="10" height="10" rx="2" fill="#161b22" class="grid-cell" />
  <rect x="537" y="69" width="10" height="10" rx="2" fill="#161b22" class="grid-cell" />
  <rect x="537" y="82" width="10" height="10" rx="2" fill="#161b22" class="grid-cell" />
  <rect x="537" y="95" width="10" height="10" rx="2" fill="#161b22" class="grid-cell" />
  <rect x="537" y="108" width="10" height="10" rx="2" fill="#161b22" class="grid-cell" />
  <rect x="550" y="30" width="10" height="10" rx="2" fill="#161b22" class="grid-cell" />
  <rect x="550" y="43" width="10" height="10" rx="2" fill="#161b22" class="grid-cell" />
  <rect x="550" y="56" width="10" height="10" rx="2" fill="#161b22" class="grid-cell" />
  <rect x="550" y="69" width="10" height="10" rx="2" fill="#161b22" class="grid-cell" />
  <rect x="550" y="82" width="10" height="10" rx="2" fill="#161b22" class="grid-cell" />
  <rect x="550" y="95" width="10" height="10" rx="2" fill="#161b22" class="grid-cell" />
  <rect x="550" y="108" width="10" height="10" rx="2" fill="#161b22" class="grid-cell" />
  <rect x="563" y="30" width="10" height="10" rx="2" fill="#161b22" class="grid-cell" />
  <rect x="563" y="43" width="10" height="10" rx="2" fill="#161b22" class="grid-cell" />
  <rect x="563" y="56" width="10" height="10" rx="2" fill="#161b22" class="grid-cell" />
  <rect x="563" y="69" width="10" height="10" rx="2" fill="#161b22" class="grid-cell" />
  <rect x="563" y="82" width="10" height="10" rx="2" fill="#161b22" class="grid-cell" />
  <rect x="563" y="95" width="10" height="10" rx="2" fill="#161b22" class="grid-cell" />
  <rect x="563" y="108" width="10" height="10" rx="2" fill="#161b22" class="grid-cell" />
  <rect x="576" y="30" width="10" height="10" rx="2" fill="#161b22" class="grid-cell" />
  <rect x="576" y="43" width="10" height="10" rx="2" fill="#161b22" class="grid-cell" />
  <rect x="576" y="56" width="10" height="10" rx="2" fill="#161b22" class="grid-cell" />
  <rect x="576" y="69" width="10" height="10" rx="2" fill="#161b22" class="grid-cell" />
  <rect x="576" y="82" width="10" height="10" rx="2" fill="#161b22" class="grid-cell" />
  <rect x="576" y="95" width="10" height="10" rx="2" fill="#161b22" class="grid-cell" />
  <rect x="576" y="108" width="10" height="10" rx="2" fill="#161b22" class="grid-cell" />
  <rect x="589" y="30" width="10" height="10" rx="2" fill="#161b22" class="grid-cell" />
  <rect x="589" y="43" width="10" height="10" rx="2" fill="#161b22" class="grid-cell" />
  <rect x="589" y="56" width="10" height="10" rx="2" fill="#161b22" class="grid-cell" />
  <rect x="589" y="69" width="10" height="10" rx="2" fill="#161b22" class="grid-cell" />
  <rect x="589" y="82" width="10" height="10" rx="2" fill="#161b22" class="grid-cell" />
  <rect x="589" y="95" width="10" height="10" rx="2" fill="#161b22" class="grid-cell" />
  <rect x="589" y="108" width="10" height="10" rx="2" fill="#161b22" class="grid-cell" />
  <rect x="602" y="30" width="10" height="10" rx="2" fill="#161b22" class="grid-cell" />
  <rect x="602" y="43" width="10" height="10" rx="2" fill="#161b22" class="grid-cell" />
  <rect x="602" y="56" width="10" height="10" rx="2" fill="#161b22" class="grid-cell" />
  <rect x="602" y="69" width="10" height="10" rx="2" fill="#161b22" class="grid-cell" />
  <rect x="602" y="82" width="10" height="10" rx="2" fill="#161b22" class="grid-cell" />
  <rect x="602" y="95" width="10" height="10" rx="2" fill="#161b22" class="grid-cell" />
  <rect x="602" y="108" width="10" height="10" rx="2" fill="#161b22" class="grid-cell" />
  <rect x="615" y="30" width="10" height="10" rx="2" fill="#161b22" class="grid-cell" />
  <rect x="615" y="43" width="10" height="10" rx="2" fill="#161b22" class="grid-cell" />
  <rect x="615" y="56" width="10" height="10" rx="2" fill="#0e4429" class="grid-cell" />
  <rect x="615" y="69" width="10" height="10" rx="2" fill="#161b22" class="grid-cell" />
  <rect x="615" y="82" width="10" height="10" rx="2" fill="#161b22" class="grid-cell" />
  <rect x="615" y="95" width="10" height="10" rx="2" fill="#161b22" class="grid-cell" />
  <rect x="615" y="108" width="10" height="10" rx="2" fill="#161b22" class="grid-cell" />
  <rect x="628" y="30" width="10" height="10" rx="2" fill="#161b22" class="grid-cell" />
  <rect x="628" y="43" width="10" height="10" rx="2" fill="#161b22" class="grid-cell" />
  <rect x="628" y="56" width="10" height="10" rx="2" fill="#161b22" class="grid-cell" />
  <rect x="628" y="69" width="10" height="10" rx="2" fill="#161b22" class="grid-cell" />
  <rect x="628" y="82" width="10" height="10" rx="2" fill="#161b22" class="grid-cell" />
  <rect x="628" y="95" width="10" height="10" rx="2" fill="#161b22" class="grid-cell" />
  <rect x="628" y="108" width="10" height="10" rx="2" fill="#161b22" class="grid-cell" />
  <rect x="641" y="30" width="10" height="10" rx="2" fill="#161b22" class="grid-cell" />
  <rect x="641" y="43" width="10" height="10" rx="2" fill="#161b22" class="grid-cell" />
  <rect x="641" y="56" width="10" height="10" rx="2" fill="#161b22" class="grid-cell" />
  <rect x="641" y="69" width="10" height="10" rx="2" fill="#161b22" class="grid-cell" />
  <rect x="641" y="82" width="10" height="10" rx="2" fill="#161b22" class="grid-cell" />
  <rect x="641" y="95" width="10" height="10" rx="2" fill="#161b22" class="grid-cell" />
  <rect x="641" y="108" width="10" height="10" rx="2" fill="#161b22" class="grid-cell" />
  <rect x="654" y="30" width="10" height="10" rx="2" fill="#161b22" class="grid-cell" />
  <rect x="654" y="43" width="10" height="10" rx="2" fill="#161b22" class="grid-cell" />
  <rect x="654" y="56" width="10" height="10" rx="2" fill="#161b22" class="grid-cell" />
  <rect x="654" y="69" width="10" height="10" rx="2" fill="#161b22" class="grid-cell" />
  <rect x="654" y="82" width="10" height="10" rx="2" fill="#161b22" class="grid-cell" />
  <rect x="654" y="95" width="10" height="10" rx="2" fill="#161b22" class="grid-cell" />
  <rect x="654" y="108" width="10" height="10" rx="2" fill="#161b22" class="grid-cell" />
  <rect x="667" y="30" width="10" height="10" rx="2" fill="#161b22" class="grid-cell" />
  <rect x="667" y="43" width="10" height="10" rx="2" fill="#0e4429" class="grid-cell" />
  <rect x="667" y="56" width="10" height="10" rx="2" fill="#0e4429" class="grid-cell" />
  <rect x="667" y="69" width="10" height="10" rx="2" fill="#161b22" class="grid-cell" />
  <rect x="667" y="82" width="10" height="10" rx="2" fill="#161b22" class="grid-cell" />
  <rect x="667" y="95" width="10" height="10" rx="2" fill="#006d32" class="grid-cell" />
  <rect x="667" y="108" width="10" height="10" rx="2" fill="#006d32" class="grid-cell" />
  <rect x="680" y="30" width="10" height="10" rx="2" fill="#161b22" class="grid-cell" />
  <rect x="680" y="43" width="10" height="10" rx="2" fill="#39d353" class="grid-cell" />
  <rect x="680" y="56" width="10" height="10" rx="2" fill="#161b22" class="grid-cell" />
  <rect x="680" y="69" width="10" height="10" rx="2" fill="#26a641" class="grid-cell" />
  <rect x="680" y="82" width="10" height="10" rx="2" fill="#161b22" class="grid-cell" />
  <rect x="680" y="95" width="10" height="10" rx="2" fill="#0e4429" class="grid-cell" />
  <rect x="680" y="108" width="10" height="10" rx="2" fill="#0e4429" class="grid-cell" />
  <rect x="693" y="30" width="10" height="10" rx="2" fill="#161b22" class="grid-cell" />
  <rect x="693" y="43" width="10" height="10" rx="2" fill="#0e4429" class="grid-cell" />
  <rect x="693" y="56" width="10" height="10" rx="2" fill="#0e4429" class="grid-cell" />
  <rect x="693" y="69" width="10" height="10" rx="2" fill="#006d32" class="grid-cell" />
  <rect x="693" y="82" width="10" height="10" rx="2" fill="#161b22" class="grid-cell" />
  <rect x="693" y="95" width="10" height="10" rx="2" fill="#161b22" class="grid-cell" />
  <rect x="693" y="108" width="10" height="10" rx="2" fill="#39d353" class="grid-cell" />
  <rect x="706" y="30" width="10" height="10" rx="2" fill="#006d32" class="grid-cell" />
  <rect x="706" y="43" width="10" height="10" rx="2" fill="#161b22" class="grid-cell" />
  <rect x="706" y="56" width="10" height="10" rx="2" fill="#161b22" class="grid-cell" />
  <rect x="706" y="69" width="10" height="10" rx="2" fill="#26a641" class="grid-cell" />
  <rect x="706" y="82" width="10" height="10" rx="2" fill="#161b22" class="grid-cell" />
  <rect x="706" y="95" width="10" height="10" rx="2" fill="#39d353" class="grid-cell" />


  <!-- Migrating Butterflies & Trails -->
  
  <!-- Tail trail for Migrator 1 -->
  <path d="M 126 74 C 184.5 74, 184.5 67.5, 243 67.5 C 249.5 67.5, 249.5 61, 256 61 C 353.5 61, 353.5 61, 451 61 C 535.5 61, 535.5 61, 620 61 C 646 61, 646 80.5, 672 80.5 C 678.5 80.5, 678.5 83.75, 685 83.75 C 691.5 83.75, 691.5 74, 698 74 C 704.5 74, 704.5 69.66666666666667, 711 69.66666666666667" fill="none" stroke="#ff69b4" stroke-width="1.3" opacity="0.6" stroke-dasharray="24 684" stroke-dashoffset="684">
    <animate attributeName="stroke-dashoffset" values="684; -24" dur="12s" begin="0s" repeatCount="indefinite" />
  </path>
  
  <!-- Migrating Butterfly 1 -->
  <g>
    <g style="animation: hover-1 2s ease-in-out infinite alternate; transform: scale(0.85); transform-origin: 0px 0px;">
      <!-- Left Wing -->
      <path d="M 0 0 C -1.5 -3.5, -5.5 -4.5, -5.5 -1.5 C -5.5 1.5, -1.5 1, 0 0 Z" fill="url(#grad-pink)" opacity="0.9" style="animation: flap-left 0.32s ease-in-out infinite alternate; transform-origin: 0px 0px;" />
      <!-- Right Wing -->
      <path d="M 0 0 C 1.5 -3.5, 5.5 -4.5, 5.5 -1.5 C 5.5 1.5, 1.5 1, 0 0 Z" fill="url(#grad-pink)" opacity="0.9" style="animation: flap-right 0.32s ease-in-out infinite alternate; transform-origin: 0px 0px;" />
      <!-- Body -->
      <line x1="0" y1="-3.5" x2="0" y2="2" stroke="#120c22" stroke-width="0.8" />
    </g>
    <animateMotion dur="12s" begin="0s" repeatCount="indefinite" path="M 126 74 C 184.5 74, 184.5 67.5, 243 67.5 C 249.5 67.5, 249.5 61, 256 61 C 353.5 61, 353.5 61, 451 61 C 535.5 61, 535.5 61, 620 61 C 646 61, 646 80.5, 672 80.5 C 678.5 80.5, 678.5 83.75, 685 83.75 C 691.5 83.75, 691.5 74, 698 74 C 704.5 74, 704.5 69.66666666666667, 711 69.66666666666667" rotate="auto" />
  </g>
  <!-- Tail trail for Migrator 2 -->
  <path d="M 126 74 C 184.5 74, 184.5 67.5, 243 67.5 C 249.5 67.5, 249.5 61, 256 61 C 353.5 61, 353.5 61, 451 61 C 535.5 61, 535.5 61, 620 61 C 646 61, 646 80.5, 672 80.5 C 678.5 80.5, 678.5 83.75, 685 83.75 C 691.5 83.75, 691.5 74, 698 74 C 704.5 74, 704.5 69.66666666666667, 711 69.66666666666667" fill="none" stroke="#dda0dd" stroke-width="1.3" opacity="0.6" stroke-dasharray="24 684" stroke-dashoffset="684">
    <animate attributeName="stroke-dashoffset" values="684; -24" dur="9s" begin="-3s" repeatCount="indefinite" />
  </path>
  
  <!-- Migrating Butterfly 2 -->
  <g>
    <g style="animation: hover-1 2s ease-in-out infinite alternate; transform: scale(0.7); transform-origin: 0px 0px;">
      <!-- Left Wing -->
      <path d="M 0 0 C -1.5 -3.5, -5.5 -4.5, -5.5 -1.5 C -5.5 1.5, -1.5 1, 0 0 Z" fill="url(#grad-lavender)" opacity="0.9" style="animation: flap-left 0.30s ease-in-out infinite alternate; transform-origin: 0px 0px;" />
      <!-- Right Wing -->
      <path d="M 0 0 C 1.5 -3.5, 5.5 -4.5, 5.5 -1.5 C 5.5 1.5, 1.5 1, 0 0 Z" fill="url(#grad-lavender)" opacity="0.9" style="animation: flap-right 0.30s ease-in-out infinite alternate; transform-origin: 0px 0px;" />
      <!-- Body -->
      <line x1="0" y1="-3.5" x2="0" y2="2" stroke="#120c22" stroke-width="0.8" />
    </g>
    <animateMotion dur="9s" begin="-3s" repeatCount="indefinite" path="M 126 74 C 184.5 74, 184.5 67.5, 243 67.5 C 249.5 67.5, 249.5 61, 256 61 C 353.5 61, 353.5 61, 451 61 C 535.5 61, 535.5 61, 620 61 C 646 61, 646 80.5, 672 80.5 C 678.5 80.5, 678.5 83.75, 685 83.75 C 691.5 83.75, 691.5 74, 698 74 C 704.5 74, 704.5 69.66666666666667, 711 69.66666666666667" rotate="auto" />
  </g>
  <!-- Tail trail for Migrator 3 -->
  <path d="M 126 74 C 184.5 74, 184.5 67.5, 243 67.5 C 249.5 67.5, 249.5 61, 256 61 C 353.5 61, 353.5 61, 451 61 C 535.5 61, 535.5 61, 620 61 C 646 61, 646 80.5, 672 80.5 C 678.5 80.5, 678.5 83.75, 685 83.75 C 691.5 83.75, 691.5 74, 698 74 C 704.5 74, 704.5 69.66666666666667, 711 69.66666666666667" fill="none" stroke="#ba55d3" stroke-width="1.3" opacity="0.6" stroke-dasharray="24 684" stroke-dashoffset="684">
    <animate attributeName="stroke-dashoffset" values="684; -24" dur="15s" begin="-6s" repeatCount="indefinite" />
  </path>
  
  <!-- Migrating Butterfly 3 -->
  <g>
    <g style="animation: hover-1 2s ease-in-out infinite alternate; transform: scale(1.05); transform-origin: 0px 0px;">
      <!-- Left Wing -->
      <path d="M 0 0 C -1.5 -3.5, -5.5 -4.5, -5.5 -1.5 C -5.5 1.5, -1.5 1, 0 0 Z" fill="url(#grad-purple)" opacity="0.9" style="animation: flap-left 0.28s ease-in-out infinite alternate; transform-origin: 0px 0px;" />
      <!-- Right Wing -->
      <path d="M 0 0 C 1.5 -3.5, 5.5 -4.5, 5.5 -1.5 C 5.5 1.5, 1.5 1, 0 0 Z" fill="url(#grad-purple)" opacity="0.9" style="animation: flap-right 0.28s ease-in-out infinite alternate; transform-origin: 0px 0px;" />
      <!-- Body -->
      <line x1="0" y1="-3.5" x2="0" y2="2" stroke="#120c22" stroke-width="0.8" />
    </g>
    <animateMotion dur="15s" begin="-6s" repeatCount="indefinite" path="M 126 74 C 184.5 74, 184.5 67.5, 243 67.5 C 249.5 67.5, 249.5 61, 256 61 C 353.5 61, 353.5 61, 451 61 C 535.5 61, 535.5 61, 620 61 C 646 61, 646 80.5, 672 80.5 C 678.5 80.5, 678.5 83.75, 685 83.75 C 691.5 83.75, 691.5 74, 698 74 C 704.5 74, 704.5 69.66666666666667, 711 69.66666666666667" rotate="auto" />
  </g>

  <!-- Sanctuary Loop Butterflies & Trails -->
  
  <!-- Sanctuary 1 Loop Trail -->
  <path d="M 672 80.5 C 656 68.5, 656 92.5, 672 80.5 C 688 68.5, 688 92.5, 672 80.5" fill="none" stroke="#ff4d94" stroke-width="1.2" opacity="0.55" stroke-dasharray="16 120" stroke-dashoffset="120">
    <animate attributeName="stroke-dashoffset" values="120; -120" dur="6s" repeatCount="indefinite" />
  </path>
  <!-- Sanctuary 1 Orbiting Butterfly -->
  <g>
    <g style="animation: hover-2 2.2s ease-in-out infinite alternate; transform: scale(0.85); transform-origin: 0px 0px;">
      <path d="M 0 0 C -1.5 -3.5, -5.5 -4.5, -5.5 -1.5 C -5.5 1.5, -1.5 1, 0 0 Z" fill="url(#grad-pink)" opacity="0.9" style="animation: flap-left 0.28s ease-in-out infinite alternate; transform-origin: 0px 0px;" />
      <path d="M 0 0 C 1.5 -3.5, 5.5 -4.5, 5.5 -1.5 C 5.5 1.5, 1.5 1, 0 0 Z" fill="url(#grad-pink)" opacity="0.9" style="animation: flap-right 0.28s ease-in-out infinite alternate; transform-origin: 0px 0px;" />
      <line x1="0" y1="-3.5" x2="0" y2="2" stroke="#120c22" stroke-width="0.8" />
    </g>
    <animateMotion dur="6s" repeatCount="indefinite" path="M 672 80.5 C 656 68.5, 656 92.5, 672 80.5 C 688 68.5, 688 92.5, 672 80.5" rotate="auto" />
  </g>

  <!-- Sanctuary 2 Loop Trail -->
  <path d="M 685 83.75 C 669 95.75, 669 71.75, 685 83.75 C 701 95.75, 701 71.75, 685 83.75" fill="none" stroke="#ba55d3" stroke-width="1.2" opacity="0.55" stroke-dasharray="16 120" stroke-dashoffset="120">
    <animate attributeName="stroke-dashoffset" values="120; -120" dur="7s" repeatCount="indefinite" />
  </path>
  <!-- Sanctuary 2 Orbiting Butterfly -->
  <g>
    <g style="animation: hover-3 2.5s ease-in-out infinite alternate; transform: scale(0.75); transform-origin: 0px 0px;">
      <path d="M 0 0 C -1.5 -3.5, -5.5 -4.5, -5.5 -1.5 C -5.5 1.5, -1.5 1, 0 0 Z" fill="url(#grad-purple)" opacity="0.9" style="animation: flap-left 0.32s ease-in-out infinite alternate; transform-origin: 0px 0px;" />
      <path d="M 0 0 C 1.5 -3.5, 5.5 -4.5, 5.5 -1.5 C 5.5 1.5, 1.5 1, 0 0 Z" fill="url(#grad-purple)" opacity="0.9" style="animation: flap-right 0.32s ease-in-out infinite alternate; transform-origin: 0px 0px;" />
      <line x1="0" y1="-3.5" x2="0" y2="2" stroke="#120c22" stroke-width="0.8" />
    </g>
    <animateMotion dur="7s" repeatCount="indefinite" path="M 685 83.75 C 669 95.75, 669 71.75, 685 83.75 C 701 95.75, 701 71.75, 685 83.75" rotate="auto" />
  </g>

  <!-- Environmental Petals -->
    <path d="M 248 66 c -1.5 -3, 1.5 -6, 3 -3 c 1.5 3, -1.5 6, -3 3" fill="#ffb7d5" opacity="0" style="animation: petal-fall 6.8s ease-in-out 4.7s infinite; --fdx: 14.5px; --frot: 79deg; transform-origin: 248px 66px;" />
  <path d="M 369 60 c -1.5 -3, 1.5 -6, 3 -3 c 1.5 3, -1.5 6, -3 3" fill="#ffb7d5" opacity="0" style="animation: petal-fall 4.5s ease-in-out 4.8s infinite; --fdx: -14.6px; --frot: 309deg; transform-origin: 369px 60px;" />
  <path d="M 186 42 c -1.5 -3, 1.5 -6, 3 -3 c 1.5 3, -1.5 6, -3 3" fill="#ffb7d5" opacity="0" style="animation: petal-fall 6.2s ease-in-out 1.9s infinite; --fdx: 15.1px; --frot: 359deg; transform-origin: 186px 42px;" />
  <path d="M 372 55 c -1.5 -3, 1.5 -6, 3 -3 c 1.5 3, -1.5 6, -3 3" fill="#ffb7d5" opacity="0" style="animation: petal-fall 8.5s ease-in-out 6.9s infinite; --fdx: -9.4px; --frot: 93deg; transform-origin: 372px 55px;" />
  <path d="M 706 82 c -1.5 -3, 1.5 -6, 3 -3 c 1.5 3, -1.5 6, -3 3" fill="#ffb7d5" opacity="0" style="animation: petal-fall 8.0s ease-in-out 6.8s infinite; --fdx: -2.2px; --frot: 98deg; transform-origin: 706px 82px;" />
  <path d="M 413 34 c -1.5 -3, 1.5 -6, 3 -3 c 1.5 3, -1.5 6, -3 3" fill="#ffb7d5" opacity="0" style="animation: petal-fall 6.9s ease-in-out 2.1s infinite; --fdx: -1.3px; --frot: 309deg; transform-origin: 413px 34px;" />
  <path d="M 677 51 c -1.5 -3, 1.5 -6, 3 -3 c 1.5 3, -1.5 6, -3 3" fill="#ffb7d5" opacity="0" style="animation: petal-fall 7.1s ease-in-out 7.4s infinite; --fdx: -7.1px; --frot: 224deg; transform-origin: 677px 51px;" />
  <path d="M 195 85 c -1.5 -3, 1.5 -6, 3 -3 c 1.5 3, -1.5 6, -3 3" fill="#ffb7d5" opacity="0" style="animation: petal-fall 6.1s ease-in-out 7.0s infinite; --fdx: 8.9px; --frot: 161deg; transform-origin: 195px 85px;" />
  <path d="M 699 71 c -1.5 -3, 1.5 -6, 3 -3 c 1.5 3, -1.5 6, -3 3" fill="#ffb7d5" opacity="0" style="animation: petal-fall 8.5s ease-in-out 2.1s infinite; --fdx: -0.6px; --frot: 116deg; transform-origin: 699px 71px;" />
  <path d="M 193 40 c -1.5 -3, 1.5 -6, 3 -3 c 1.5 3, -1.5 6, -3 3" fill="#ffb7d5" opacity="0" style="animation: petal-fall 7.9s ease-in-out 4.0s infinite; --fdx: 11.1px; --frot: 303deg; transform-origin: 193px 40px;" />
  <path d="M 333 35 c -1.5 -3, 1.5 -6, 3 -3 c 1.5 3, -1.5 6, -3 3" fill="#ffb7d5" opacity="0" style="animation: petal-fall 6.1s ease-in-out 2.6s infinite; --fdx: 5.2px; --frot: 193deg; transform-origin: 333px 35px;" />
  <path d="M 246 75 c -1.5 -3, 1.5 -6, 3 -3 c 1.5 3, -1.5 6, -3 3" fill="#ffb7d5" opacity="0" style="animation: petal-fall 5.6s ease-in-out 2.2s infinite; --fdx: -9.0px; --frot: 236deg; transform-origin: 246px 75px;" />


  <!-- Environmental Fireflies -->
    <circle cx="36" cy="113" r="0.9" fill="#ffd700" opacity="0.45" style="animation: firefly-float 3.5s ease-in-out 3.0s infinite; --dx: 3.3px; --dy: 8.3px;" />
  <circle cx="723" cy="40" r="1.5" fill="#ffd700" opacity="0.45" style="animation: firefly-float 3.6s ease-in-out 1.4s infinite; --dx: -8.1px; --dy: -7.7px;" />
  <circle cx="76" cy="57" r="0.9" fill="#ffd700" opacity="0.45" style="animation: firefly-float 5.6s ease-in-out 4.8s infinite; --dx: -6.3px; --dy: 4.0px;" />
  <circle cx="123" cy="95" r="1.3" fill="#ffd700" opacity="0.45" style="animation: firefly-float 4.6s ease-in-out 0.3s infinite; --dx: -9.7px; --dy: 9.3px;" />
  <circle cx="647" cy="80" r="1.5" fill="#ffd700" opacity="0.45" style="animation: firefly-float 5.6s ease-in-out 3.5s infinite; --dx: 2.4px; --dy: 3.9px;" />
  <circle cx="239" cy="114" r="1.4" fill="#ffd700" opacity="0.45" style="animation: firefly-float 4.0s ease-in-out 4.8s infinite; --dx: 0.7px; --dy: 2.7px;" />
  <circle cx="392" cy="118" r="1.4" fill="#ffd700" opacity="0.45" style="animation: firefly-float 6.2s ease-in-out 4.6s infinite; --dx: -2.6px; --dy: -7.5px;" />
  <circle cx="621" cy="103" r="1.1" fill="#ffd700" opacity="0.45" style="animation: firefly-float 5.0s ease-in-out 3.7s infinite; --dx: 2.8px; --dy: 5.7px;" />
  <circle cx="38" cy="88" r="1.5" fill="#ffd700" opacity="0.45" style="animation: firefly-float 3.4s ease-in-out 1.3s infinite; --dx: -3.0px; --dy: 5.2px;" />
  <circle cx="720" cy="108" r="0.9" fill="#ffd700" opacity="0.45" style="animation: firefly-float 4.1s ease-in-out 3.6s infinite; --dx: 4.4px; --dy: -3.4px;" />
  <circle cx="409" cy="80" r="1.2" fill="#ffd700" opacity="0.45" style="animation: firefly-float 5.4s ease-in-out 0.5s infinite; --dx: -2.0px; --dy: -4.8px;" />
  <circle cx="507" cy="92" r="1.5" fill="#ffd700" opacity="0.45" style="animation: firefly-float 4.2s ease-in-out 4.5s infinite; --dx: 9.9px; --dy: 9.4px;" />
  <circle cx="468" cy="62" r="0.9" fill="#ffd700" opacity="0.45" style="animation: firefly-float 6.3s ease-in-out 3.2s infinite; --dx: 3.7px; --dy: 2.0px;" />
  <circle cx="42" cy="82" r="1.2" fill="#ffd700" opacity="0.45" style="animation: firefly-float 6.1s ease-in-out 2.2s infinite; --dx: -1.1px; --dy: 5.1px;" />
  <circle cx="693" cy="74" r="1.3" fill="#ffd700" opacity="0.45" style="animation: firefly-float 5.8s ease-in-out 3.1s infinite; --dx: 4.6px; --dy: 5.9px;" />

</svg>
